<svg width="18" height="16" viewBox="0 0 18 16" fill="none" xmlns="http://www.w3.org/2000/svg">
<path d="M16.1053 1.84476H1.89474C0.848838 1.84476 0 2.65658 0 3.66093V14.1838C0 15.1882 0.848838 16 1.89474 16H16.1053C17.1512 16 18 15.1882 18 14.1838V3.66093C18 2.65658 17.1512 1.84476 16.1053 1.84476ZM16.6737 14.1838C16.6737 14.4853 16.4179 14.7287 16.1053 14.7287H1.89474C1.5821 14.7287 1.32632 14.4853 1.32632 14.1838V5.84033C1.32632 5.53885 1.5821 5.29548 1.89474 5.29548H16.1053C16.4179 5.29548 16.6737 5.53885 16.6737 5.84033V14.1838Z" fill="#008EE0"/>
<path d="M4.93204 0H4.15046C3.81037 0 3.53467 0.264266 3.53467 0.590256V2.47453H5.54783V0.590256C5.54783 0.264266 5.27213 0 4.93204 0Z" fill="#008EE0"/>
<path d="M13.8493 0H13.0677C12.7276 0 12.4519 0.264266 12.4519 0.590256V2.47453H14.4651V0.590256C14.4651 0.264266 14.1894 0 13.8493 0Z" fill="#008EE0"/>
<path d="M7.71719 13.0031C7.50568 13.0031 7.30299 12.9226 7.15337 12.7793L4.95586 10.6728C4.80019 10.5236 4.8002 10.2817 4.95587 10.1324L5.51963 9.59206C5.67531 9.44284 5.92771 9.44284 6.08339 9.59206L7.71719 11.1582L11.9166 7.133C12.0722 6.98378 12.3246 6.98378 12.4803 7.133L13.0441 7.67338C13.1997 7.82261 13.1997 8.06454 13.0441 8.21376L8.28088 12.7793C8.13139 12.9226 7.92857 13.0031 7.71719 13.0031Z" fill="#008EE0"/>
</svg>
