<svg width="67" height="76" viewBox="0 0 67 76" fill="none" xmlns="http://www.w3.org/2000/svg">
<path d="M54.5 0.610718L42.2114 12.8987L46.2886 16.976L51.6172 11.6474V64.3526L46.2886 59.0239L42.2114 63.1011L54.5 75.3893L66.7886 63.1011L62.7114 59.0239L57.3828 64.3526V11.6474L62.7114 16.9761L66.7888 12.8987L54.5 0.610718ZM15.6712 0.652038C11.929 1.13811 8.5358 5.52783 8.5358 11.2119C8.5358 14.3443 9.62022 17.1147 11.2096 19.03L13.1059 21.3143L10.1883 21.8627C8.12228 22.251 6.60752 23.3425 5.31266 25.1196C4.01779 26.8968 3.02787 29.373 2.33407 32.2265C1.07796 37.3964 0.801695 43.7086 0.757812 49.2729H7.62339L9.50859 74.5513C14.2963 75.6321 19.408 75.5939 24.0191 74.5553L25.6869 49.2729H32.2239C32.2195 43.6405 32.1475 37.2412 31.0092 32.0321C30.3818 29.16 29.4304 26.6875 28.12 24.9304C26.8091 23.1735 25.2244 22.0885 22.9049 21.7291L19.9272 21.2678L21.8068 18.9129C23.3275 17.0075 24.3584 14.2688 24.3584 11.2123C24.3584 5.15227 20.5699 0.666933 16.4469 0.666933L15.6712 0.652038Z" fill="#008EE0"/>
</svg>
