<svg width="18" height="18" viewBox="0 0 18 18" fill="none" xmlns="http://www.w3.org/2000/svg">
<path d="M8.6201 0C3.85912 0 8.12011e-08 3.85891 8.12011e-08 8.61988C-0.00064641 13.3802 3.85912 17.2391 8.6201 17.2398C13.3809 17.2398 17.2406 13.3809 17.2398 8.61924C17.2406 3.85826 13.38 0 8.6201 0ZM14.4605 12.7908L13.2529 11.9127L10.3208 14.0431L10.7841 15.4692C10.101 15.6852 9.37412 15.803 8.61967 15.803C7.86543 15.803 7.1392 15.6852 6.45608 15.4699L6.91961 14.0431L3.9867 11.9127L2.77948 12.7902C1.94809 11.6284 1.45202 10.2122 1.43952 8.67807L2.93658 8.6772L4.05609 5.23098L2.84952 4.35412C3.71797 3.18052 4.93251 2.28125 6.34574 1.80974L6.8082 3.23246H10.4314L10.8936 1.80974C12.3077 2.2819 13.5218 3.18117 14.3902 4.35412L13.1835 5.23098L14.303 8.6772H15.8009C15.7884 10.2124 15.2921 11.6287 14.4605 12.7908Z" fill="#008EE0"/>
<path d="M6.79562 6.1423L5.67676 9.58853L8.60838 11.7183L11.54 9.58853L10.4203 6.1423H6.79562Z" fill="#008EE0"/>
</svg>
