<svg width="24" height="26" viewBox="0 0 24 26" fill="none" xmlns="http://www.w3.org/2000/svg">
<path d="M12 0C11.074 0 10.055 0.27 9.187 0.531C8.336 0.789 7.711 1.055 7.687 1.062H7.657L4.781 2.032L4.687 2.062C4.56043 2.09773 4.43562 2.13945 4.313 2.187L4 2.282V2.314C3.164 2.673 1.855 3.45 1.094 5.064C0.0589999 7.25 0 9.968 0 9.968V12H4V26H20V12H24V9.906C24 9.906 23.914 9.059 23.75 8.031C23.586 7.004 23.418 5.871 22.844 4.969C22.15 3.86137 21.1666 2.9644 20 2.375V2.281L19.594 2.156C19.535 2.129 19.547 2.145 19.5 2.125L19.312 2.062L16.344 1.062H16.312C16.289 1.055 15.664 0.789 14.812 0.532C13.945 0.27 12.927 0 12 0ZM12 2C12.434 2 13.426 2.23 14.219 2.469C14.426 2.531 14.414 2.535 14.594 2.594C14.531 2.687 14.484 2.777 14.406 2.875C13.938 3.457 13.281 4 12 4C10.719 4 10.062 3.457 9.594 2.875C9.516 2.777 9.469 2.687 9.406 2.594C9.586 2.535 9.574 2.531 9.781 2.469C10.574 2.23 11.566 2 12 2ZM7.437 3.219C7.586 3.504 7.777 3.809 8.031 4.125C8.50765 4.7174 9.11249 5.19392 9.79998 5.5187C10.4875 5.84348 11.2397 6.00805 12 6C13.906 6 15.23 5.043 15.969 4.125C16.223 3.809 16.414 3.504 16.562 3.219L18 3.719V24H6V3.719L7.437 3.219ZM4 4.562V10H2C2.004 9.945 2.156 7.523 2.906 5.937C3.15305 5.39657 3.52865 4.92484 4 4.563V4.562ZM20 4.719C20.367 5.027 20.773 5.429 21.156 6.031C21.316 6.285 21.629 7.406 21.781 8.344C21.926 9.23 21.992 9.922 22 10H20V4.719Z" fill="#008EE0"/>
</svg>
