<svg width="17" height="17" viewBox="0 0 17 17" fill="none" xmlns="http://www.w3.org/2000/svg">
<path d="M2.83333 0C1.26852 0 0 1.26852 0 2.83333V14.1667C0 15.7315 1.26852 17 2.83333 17H14.1667C15.7315 17 17 15.7315 17 14.1667V2.83333C17 1.26852 15.7315 0 14.1667 0H2.83333ZM3.67764 3.64286H6.89044L9.17197 6.88491L11.9405 3.64286H12.9524L9.62891 7.53395L13.7271 13.3571H10.5151L7.86756 9.5957L4.65476 13.3571H3.64286L7.41062 8.94666L3.67764 3.64286ZM5.22712 4.45238L10.9373 12.5476H12.1776L6.46749 4.45238H5.22712Z" fill="#008EE0"/>
</svg>
