<svg width="16" height="15" viewBox="0 0 16 15" fill="none" xmlns="http://www.w3.org/2000/svg">
<path d="M14.1587 0H2.3746C1.35933 0 0.533333 0.801071 0.533333 1.78571V13.2143C0.533333 14.1989 1.35933 15 2.3746 15H14.1587C15.174 15 16 14.1989 16 13.2143V1.78571C16 0.801071 15.174 0 14.1587 0ZM12.6879 6.54393C12.6043 6.55143 12.5196 6.55643 12.4338 6.55643C11.4679 6.55643 10.6191 6.07464 10.1252 5.34643C10.1252 7.25679 10.1252 9.43036 10.1252 9.46679C10.1252 11.1486 8.71925 12.5121 6.98514 12.5121C5.25103 12.5121 3.84504 11.1486 3.84504 9.46679C3.84504 7.785 5.25103 6.42143 6.98514 6.42143C7.05069 6.42143 7.11477 6.42714 7.17921 6.43107V7.93179C7.11477 7.92429 7.05143 7.91286 6.98514 7.91286C6.09986 7.91286 5.3825 8.60857 5.3825 9.46714C5.3825 10.3257 6.09986 11.0214 6.98514 11.0214C7.87042 11.0214 8.65223 10.345 8.65223 9.48643C8.65223 9.4525 8.66769 2.48857 8.66769 2.48857H10.1466C10.2858 3.77107 11.3534 4.78321 12.6879 4.87607V6.54393Z" fill="white"/>
</svg>
