<svg width="17" height="17" viewBox="0 0 17 17" fill="none" xmlns="http://www.w3.org/2000/svg">
<path d="M14.9762 0H2.02381C0.907881 0 0 0.907881 0 2.02381V14.9762C0 16.0921 0.907881 17 2.02381 17H14.9762C16.0921 17 17 16.0921 17 14.9762V2.02381C17 0.907881 16.0921 0 14.9762 0ZM13.3596 7.41645C13.2677 7.42495 13.1746 7.43062 13.0803 7.43062C12.0186 7.43062 11.0856 6.88459 10.5428 6.05929C10.5428 8.22436 10.5428 10.6877 10.5428 10.729C10.5428 12.635 8.99745 14.1804 7.09143 14.1804C5.1854 14.1804 3.64002 12.635 3.64002 10.729C3.64002 8.823 5.1854 7.27762 7.09143 7.27762C7.16348 7.27762 7.23391 7.2841 7.30474 7.28855V8.98936C7.23391 8.98086 7.16429 8.96791 7.09143 8.96791C6.11838 8.96791 5.3299 9.75638 5.3299 10.7294C5.3299 11.7025 6.11838 12.491 7.09143 12.491C8.06448 12.491 8.92379 11.7243 8.92379 10.7513C8.92379 10.7128 8.94079 2.82038 8.94079 2.82038H10.5663C10.7193 4.27388 11.8927 5.42098 13.3596 5.52621V7.41645Z" fill="#008EE0"/>
</svg>
