<svg width="16" height="15" viewBox="0 0 16 15" fill="none" xmlns="http://www.w3.org/2000/svg">
<path d="M4.50985 0C2.02294 0 0 1.96372 0 4.37622V10.6262C0 13.0381 2.02481 15 4.51237 15H10.9568C13.4437 15 15.4667 13.0363 15.4667 10.6238V4.37378C15.4667 1.9619 13.4419 0 10.9543 0H4.50985ZM12.2444 2.5C12.6002 2.5 12.8889 2.78 12.8889 3.125C12.8889 3.47 12.6002 3.75 12.2444 3.75C11.8887 3.75 11.6 3.47 11.6 3.125C11.6 2.78 11.8887 2.5 12.2444 2.5ZM7.73333 3.75C9.8658 3.75 11.6 5.43188 11.6 7.5C11.6 9.56812 9.8658 11.25 7.73333 11.25C5.60087 11.25 3.86667 9.56812 3.86667 7.5C3.86667 5.43188 5.60087 3.75 7.73333 3.75ZM7.73333 5C7.04966 5 6.394 5.26339 5.91057 5.73223C5.42714 6.20107 5.15556 6.83696 5.15556 7.5C5.15556 8.16304 5.42714 8.79893 5.91057 9.26777C6.394 9.73661 7.04966 10 7.73333 10C8.417 10 9.07267 9.73661 9.5561 9.26777C10.0395 8.79893 10.3111 8.16304 10.3111 7.5C10.3111 6.83696 10.0395 6.20107 9.5561 5.73223C9.07267 5.26339 8.417 5 7.73333 5Z" fill="white"/>
</svg>
