<svg width="15" height="15" viewBox="0 0 15 15" fill="none" xmlns="http://www.w3.org/2000/svg">
<path d="M2.65 0C1.31531 0 0.233334 1.11929 0.233334 2.5V12.5C0.233334 13.8807 1.31531 15 2.65 15H12.3167C13.6514 15 14.7333 13.8807 14.7333 12.5V2.5C14.7333 1.11929 13.6514 0 12.3167 0H2.65ZM3.37015 3.21429H6.11047L8.05648 6.07492L10.4179 3.21429H11.281L8.44622 6.6476L11.9418 11.7857H9.20211L6.9439 8.4668L4.20357 11.7857H3.34048L6.55416 7.89411L3.37015 3.21429ZM4.69176 3.92857L9.56218 11.0714H10.6201L5.74973 3.92857H4.69176Z" fill="white"/>
</svg>
