<svg width="18" height="18" viewBox="0 0 18 18" fill="none" xmlns="http://www.w3.org/2000/svg">
<path d="M17.9266 15.5546L15.2984 5.4552C14.9886 4.2652 13.746 3.3332 12.4691 3.3332H11.1838C11.3347 3.0296 11.4216 2.6914 11.4216 2.3332C11.4216 1.0466 10.332 0 8.9924 0C7.653 0 6.56344 1.0466 6.56344 2.3334C6.56344 2.6916 6.65026 3.0298 6.80121 3.3334H5.52885C4.25191 3.3334 3.00912 4.2654 2.69951 5.4554L0.0710873 15.5546C-0.270791 16.8692 0.65761 18 2.05864 18H15.9393C17.2375 18 18.2924 16.961 17.9266 15.5546ZM7.95136 2.3334C7.95136 1.782 8.41837 1.3334 8.9924 1.3334C9.56664 1.3334 10.0334 1.782 10.0334 2.3334C10.0334 2.8848 9.56664 3.3334 8.9924 3.3334C8.41837 3.3334 7.95136 2.8848 7.95136 2.3334ZM15.9391 16.6666H2.05864C1.55582 16.6666 1.29577 16.347 1.41778 15.8784L4.0462 5.7786C4.20048 5.1864 4.89299 4.6668 5.52885 4.6668H12.4691C13.1047 4.6668 13.7974 5.1864 13.9515 5.7786L16.5799 15.8784C16.693 16.3124 16.4783 16.6666 15.9391 16.6666Z" fill="#008EE0"/>
<path d="M8.99881 6.6666C6.70269 6.6666 4.83464 8.461 4.83464 10.6666C4.83464 12.8724 6.70269 14.6666 8.99881 14.6666C11.2949 14.6666 13.163 12.8724 13.163 10.6666C13.163 8.4612 11.2949 6.6666 8.99881 6.6666ZM8.99881 13.3334C7.46806 13.3334 6.22277 12.1372 6.22277 10.6666C6.22277 9.1962 7.46806 8 8.99881 8C10.5296 8 11.7749 9.1962 11.7749 10.6666C11.7749 12.1372 10.5296 13.3334 8.99881 13.3334Z" fill="#008EE0"/>
</svg>
